<svg width="18" height="17" viewBox="0 0 18 17" fill="none" xmlns="http://www.w3.org/2000/svg">
<path d="M8.99996 14.1614L4.84996 16.6614C4.66663 16.7781 4.47496 16.8281 4.27496 16.8114C4.07496 16.7948 3.89996 16.7281 3.74996 16.6114C3.59996 16.4948 3.4833 16.3491 3.39996 16.1744C3.31663 15.9998 3.29996 15.8038 3.34996 15.5864L4.44996 10.8614L0.774963 7.68643C0.608296 7.53643 0.504296 7.36543 0.462963 7.17343C0.421629 6.98143 0.433963 6.79409 0.499963 6.61143C0.565963 6.42876 0.665963 6.27876 0.799963 6.16143C0.933963 6.04409 1.1173 5.96909 1.34996 5.93643L6.19996 5.51143L8.07496 1.06143C8.1583 0.861426 8.28763 0.711426 8.46296 0.611426C8.6383 0.511426 8.8173 0.461426 8.99996 0.461426C9.18263 0.461426 9.36163 0.511426 9.53696 0.611426C9.7123 0.711426 9.84163 0.861426 9.92496 1.06143L11.8 5.51143L16.65 5.93643C16.8833 5.96976 17.0666 6.04476 17.2 6.16143C17.3333 6.27809 17.4333 6.42809 17.5 6.61143C17.5666 6.79476 17.5793 6.98243 17.538 7.17443C17.4966 7.36643 17.3923 7.53709 17.225 7.68643L13.55 10.8614L14.65 15.5864C14.7 15.8031 14.6833 15.9991 14.6 16.1744C14.5166 16.3498 14.4 16.4954 14.25 16.6114C14.1 16.7274 13.925 16.7941 13.725 16.8114C13.525 16.8288 13.3333 16.7788 13.15 16.6614L8.99996 14.1614Z" fill="black"/>
</svg>
