<svg width="343" height="73" viewBox="0 0 343 73" fill="none" xmlns="http://www.w3.org/2000/svg">
<rect x="0.842285" y="0.613525" width="342" height="72" rx="36" fill="#F1F1F1"/>
<path d="M116.342 48.2935H140.342V24.2935H116.342V48.2935Z" fill="black"/>
<path d="M161.882 26.8535H164.542V36.8535H161.882V26.8535ZM152.182 37.5735H164.542V42.2935H154.842V43.7335H152.222V40.4735H161.902V39.5135H152.182V37.5735ZM152.222 43.3135H165.002V45.2735H152.222V43.3135ZM149.382 28.2135H160.522V30.2135H149.382V28.2135ZM154.962 30.6735C156.362 30.6735 157.482 30.9469 158.322 31.4935C159.176 32.0402 159.602 32.7802 159.602 33.7135C159.602 34.6469 159.176 35.3869 158.322 35.9335C157.482 36.4669 156.362 36.7335 154.962 36.7335C153.562 36.7335 152.436 36.4669 151.582 35.9335C150.742 35.3869 150.322 34.6469 150.322 33.7135C150.322 32.7802 150.742 32.0402 151.582 31.4935C152.436 30.9469 153.562 30.6735 154.962 30.6735ZM154.962 32.5535C154.322 32.5535 153.816 32.6535 153.442 32.8535C153.069 33.0402 152.882 33.3269 152.882 33.7135C152.882 34.1002 153.069 34.3869 153.442 34.5735C153.816 34.7602 154.322 34.8535 154.962 34.8535C155.602 34.8535 156.102 34.7602 156.462 34.5735C156.836 34.3869 157.022 34.1002 157.022 33.7135C157.022 33.3269 156.836 33.0402 156.462 32.8535C156.102 32.6535 155.602 32.5535 154.962 32.5535ZM153.602 26.7135H156.282V29.1735H153.602V26.7135ZM180.281 26.8735H182.941V38.1135H180.281V26.8735ZM168.521 35.2335H170.121C171.334 35.2335 172.421 35.2202 173.381 35.1935C174.341 35.1669 175.254 35.1135 176.121 35.0335C176.987 34.9535 177.861 34.8469 178.741 34.7135L179.041 36.8335C178.134 36.9802 177.227 37.0935 176.321 37.1735C175.427 37.2535 174.481 37.3069 173.481 37.3335C172.481 37.3602 171.361 37.3735 170.121 37.3735H168.521V35.2335ZM168.481 27.9535H177.021V33.5935H171.121V36.4135H168.521V31.6335H174.381V30.0735H168.481V27.9535ZM176.721 38.4335C178.681 38.4335 180.227 38.7402 181.361 39.3535C182.494 39.9535 183.061 40.8069 183.061 41.9135C183.061 43.0202 182.494 43.8802 181.361 44.4935C180.227 45.1069 178.681 45.4135 176.721 45.4135C174.761 45.4135 173.214 45.1069 172.081 44.4935C170.947 43.8802 170.381 43.0202 170.381 41.9135C170.381 40.8069 170.947 39.9535 172.081 39.3535C173.214 38.7402 174.761 38.4335 176.721 38.4335ZM176.721 40.5135C175.907 40.5135 175.227 40.5669 174.681 40.6735C174.134 40.7669 173.721 40.9202 173.441 41.1335C173.161 41.3335 173.021 41.5935 173.021 41.9135C173.021 42.2469 173.161 42.5202 173.441 42.7335C173.721 42.9335 174.134 43.0869 174.681 43.1935C175.227 43.2869 175.907 43.3335 176.721 43.3335C177.534 43.3335 178.214 43.2869 178.761 43.1935C179.307 43.0869 179.714 42.9335 179.981 42.7335C180.261 42.5202 180.401 42.2469 180.401 41.9135C180.401 41.5935 180.261 41.3335 179.981 41.1335C179.714 40.9202 179.307 40.7669 178.761 40.6735C178.214 40.5669 177.534 40.5135 176.721 40.5135ZM199.2 30.6335H204.24V32.7735H199.2V30.6335ZM199.2 36.3935H204.24V38.5335H199.2V36.3935ZM195.98 28.1335C196.9 28.1335 197.72 28.4069 198.44 28.9535C199.173 29.4869 199.74 30.2535 200.14 31.2535C200.553 32.2402 200.76 33.4069 200.76 34.7535C200.76 36.1135 200.553 37.2935 200.14 38.2935C199.74 39.2802 199.173 40.0469 198.44 40.5935C197.72 41.1269 196.9 41.3935 195.98 41.3935C195.06 41.3935 194.24 41.1269 193.52 40.5935C192.8 40.0469 192.233 39.2802 191.82 38.2935C191.407 37.2935 191.2 36.1135 191.2 34.7535C191.2 33.4069 191.407 32.2402 191.82 31.2535C192.233 30.2535 192.8 29.4869 193.52 28.9535C194.24 28.4069 195.06 28.1335 195.98 28.1335ZM195.98 30.5535C195.54 30.5535 195.147 30.7135 194.8 31.0335C194.467 31.3535 194.2 31.8269 194 32.4535C193.813 33.0669 193.72 33.8335 193.72 34.7535C193.72 35.6602 193.813 36.4335 194 37.0735C194.2 37.7002 194.467 38.1735 194.8 38.4935C195.147 38.8135 195.54 38.9735 195.98 38.9735C196.447 38.9735 196.847 38.8135 197.18 38.4935C197.513 38.1735 197.773 37.7002 197.96 37.0735C198.147 36.4335 198.24 35.6602 198.24 34.7535C198.24 33.8335 198.147 33.0669 197.96 32.4535C197.773 31.8269 197.513 31.3535 197.18 31.0335C196.847 30.7135 196.447 30.5535 195.98 30.5535ZM203.8 26.8335H206.46V45.4135H203.8V26.8335ZM222.559 26.8735H225.099V38.4735H222.559V26.8735ZM220.319 31.4335H223.259V33.5935H220.319V31.4335ZM218.739 27.2135H221.219V37.8535H218.739V27.2135ZM209.219 28.7535H218.219V30.8135H209.219V28.7535ZM213.739 31.3935C214.525 31.3935 215.219 31.5335 215.819 31.8135C216.419 32.0935 216.885 32.4735 217.219 32.9535C217.565 33.4335 217.739 33.9935 217.739 34.6335C217.739 35.2735 217.565 35.8402 217.219 36.3335C216.885 36.8135 216.419 37.1935 215.819 37.4735C215.219 37.7402 214.525 37.8735 213.739 37.8735C212.979 37.8735 212.292 37.7402 211.679 37.4735C211.079 37.1935 210.605 36.8135 210.259 36.3335C209.912 35.8402 209.739 35.2735 209.739 34.6335C209.739 33.9935 209.912 33.4335 210.259 32.9535C210.605 32.4735 211.079 32.0935 211.679 31.8135C212.292 31.5335 212.979 31.3935 213.739 31.3935ZM213.739 33.3135C213.259 33.3135 212.865 33.4269 212.559 33.6535C212.265 33.8802 212.119 34.2069 212.119 34.6335C212.119 35.0602 212.265 35.3935 212.559 35.6335C212.865 35.8602 213.259 35.9735 213.739 35.9735C214.219 35.9735 214.612 35.8602 214.919 35.6335C215.225 35.3935 215.379 35.0602 215.379 34.6335C215.379 34.2069 215.225 33.8802 214.919 33.6535C214.625 33.4269 214.232 33.3135 213.739 33.3135ZM212.419 27.0535H215.039V30.1735H212.419V27.0535ZM218.819 38.6535C220.805 38.6535 222.365 38.9469 223.499 39.5335C224.632 40.1202 225.199 40.9535 225.199 42.0335C225.199 43.1002 224.632 43.9269 223.499 44.5135C222.365 45.1002 220.805 45.3935 218.819 45.3935C216.832 45.3935 215.272 45.1002 214.139 44.5135C213.019 43.9269 212.459 43.1002 212.459 42.0335C212.459 40.9535 213.019 40.1202 214.139 39.5335C215.272 38.9469 216.832 38.6535 218.819 38.6535ZM218.839 40.6335C217.599 40.6335 216.665 40.7469 216.039 40.9735C215.412 41.2002 215.099 41.5535 215.099 42.0335C215.099 42.5002 215.412 42.8469 216.039 43.0735C216.665 43.3002 217.599 43.4135 218.839 43.4135C220.052 43.4135 220.965 43.3002 221.579 43.0735C222.205 42.8469 222.519 42.5002 222.519 42.0335C222.519 41.5535 222.205 41.2002 221.579 40.9735C220.965 40.7469 220.052 40.6335 218.839 40.6335Z" fill="black"/>
</svg>
